<svg width="291" height="115" viewBox="0 0 291 115" fill="none" xmlns="http://www.w3.org/2000/svg">
<path d="M26 1H0.5V20C6 18.5 44 31.5 56 28C65.6 25.2 72.6667 16.8333 75 13V1H69C52.6 33.4 33.5 14.5 26 1Z" fill="#141F46"/>
<path d="M69.5 28.5C55.5 40.1 17.6667 31.6667 0.5 26V46.5C5.7 42.5 24 42.8333 32.5 43.5C57.3 46.3 71.1667 40.3333 75 37V23L69.5 28.5Z" fill="#141F46"/>
<path d="M53.5 51C28.7 49.4 7.83333 50.6667 0.5 51.5V73.5C3.7 65.5 21.1667 62.5 29.5 62C51.9 62.4 69.1667 57.1667 75 54.5V44C70.6 48.8 58.8333 50.6667 53.5 51Z" fill="#141F46"/>
<path d="M40 68C16.4 66.4 3.83333 76.3333 0.5 81.5V112C19 62.5 47 92.5 51.5 101C55.1 107.8 60.6667 112.5 63 114H75V97.5H67C34.6 82.3 58.8333 72.1667 75 69V61.5C62.2 66.3 46.3333 67.8333 40 68Z" fill="#141F46"/>
<path d="M53 114C29 70.4 12 95.8333 6.5 114H11.5C22.3 89.2 40.6667 103.667 48.5 114H53Z" fill="#141F46"/>
<path d="M18 114C21 108.5 29.7 100.8 40.5 114H18Z" fill="#141F46"/>
<path d="M57 81.5C59.8 79.1 70.1667 76.8333 75 76V91H67C65.5 92 53.5 84.5 57 81.5Z" fill="#141F46"/>
<path d="M34 1C38.6667 9.66667 50.7 21.8 61.5 1H34Z" fill="#141F46"/>
<path d="M26 1H0.5V20C6 18.5 44 31.5 56 28C65.6 25.2 72.6667 16.8333 75 13V1H69C52.6 33.4 33.5 14.5 26 1Z" stroke="#141F46"/>
<path d="M69.5 28.5C55.5 40.1 17.6667 31.6667 0.5 26V46.5C5.7 42.5 24 42.8333 32.5 43.5C57.3 46.3 71.1667 40.3333 75 37V23L69.5 28.5Z" stroke="#141F46"/>
<path d="M53.5 51C28.7 49.4 7.83333 50.6667 0.5 51.5V73.5C3.7 65.5 21.1667 62.5 29.5 62C51.9 62.4 69.1667 57.1667 75 54.5V44C70.6 48.8 58.8333 50.6667 53.5 51Z" stroke="#141F46"/>
<path d="M40 68C16.4 66.4 3.83333 76.3333 0.5 81.5V112C19 62.5 47 92.5 51.5 101C55.1 107.8 60.6667 112.5 63 114H75V97.5H67C34.6 82.3 58.8333 72.1667 75 69V61.5C62.2 66.3 46.3333 67.8333 40 68Z" stroke="#141F46"/>
<path d="M53 114C29 70.4 12 95.8333 6.5 114H11.5C22.3 89.2 40.6667 103.667 48.5 114H53Z" stroke="#141F46"/>
<path d="M18 114C21 108.5 29.7 100.8 40.5 114H18Z" stroke="#141F46"/>
<path d="M57 81.5C59.8 79.1 70.1667 76.8333 75 76V91H67C65.5 92 53.5 84.5 57 81.5Z" stroke="#141F46"/>
<path d="M34 1C38.6667 9.66667 50.7 21.8 61.5 1H34Z" stroke="#141F46"/>
<path d="M86.3711 32V1.0625H95.793L98.3945 19.9238L100.979 1.0625H110.488V32H104.828V9.71094L101.277 32H95.7227L91.9609 9.71094V32H86.3711ZM112.949 32V1.0625H118.926V32H112.949ZM121.387 32V1.0625H127.75L130.598 15.8809V1.0625H136.574V32H130.527L127.434 16.5312V32H121.387ZM139.035 32V1.0625H145.012V32H139.035ZM147.473 32V1.0625H156.895L159.496 19.9238L162.08 1.0625H171.59V32H165.93V9.71094L162.379 32H156.824L153.062 9.71094V32H147.473ZM173.488 32L176.477 1.0625H186.971L189.906 32H184.053L183.613 27.0078H179.887L179.5 32H173.488ZM180.326 22.0684H183.139L181.785 6.33594H181.504L180.326 22.0684ZM191.805 32V1.0625H197.992V26.7266H204.355V32H191.805ZM205.832 32V1.0625H211.809V32H205.832ZM221.617 32.2812C218.793 32.2812 216.754 31.5781 215.5 30.1719C214.258 28.7656 213.637 26.5273 213.637 23.457V20.4336H219.754V24.3008C219.754 25.0156 219.859 25.5781 220.07 25.9883C220.293 26.3867 220.674 26.5859 221.213 26.5859C221.775 26.5859 222.162 26.4219 222.373 26.0938C222.596 25.7656 222.707 25.2266 222.707 24.4766C222.707 23.5273 222.613 22.7363 222.426 22.1035C222.238 21.459 221.91 20.8496 221.441 20.2754C220.984 19.6895 220.346 19.0098 219.525 18.2363L216.748 15.5996C214.674 13.6426 213.637 11.4043 213.637 8.88477C213.637 6.24805 214.246 4.23828 215.465 2.85547C216.695 1.47266 218.471 0.78125 220.791 0.78125C223.627 0.78125 225.637 1.53711 226.82 3.04883C228.016 4.56055 228.613 6.85742 228.613 9.93945H222.32V7.8125C222.32 7.39062 222.197 7.0625 221.951 6.82812C221.717 6.59375 221.395 6.47656 220.984 6.47656C220.492 6.47656 220.129 6.61719 219.895 6.89844C219.672 7.16797 219.561 7.51953 219.561 7.95312C219.561 8.38672 219.678 8.85547 219.912 9.35938C220.146 9.86328 220.609 10.4434 221.301 11.0996L224.869 14.5273C225.584 15.207 226.24 15.9277 226.838 16.6895C227.436 17.4395 227.916 18.3184 228.279 19.3262C228.643 20.3223 228.824 21.541 228.824 22.9824C228.824 25.8887 228.285 28.168 227.207 29.8203C226.141 31.4609 224.277 32.2812 221.617 32.2812ZM230.898 32V1.0625H240.32L242.922 19.9238L245.506 1.0625H255.016V32H249.355V9.71094L245.805 32H240.25L236.488 9.71094V32H230.898Z" fill="#141F46"/>
<path d="M86.3711 73V42.0625H95.793L98.3945 60.9238L100.979 42.0625H110.488V73H104.828V50.7109L101.277 73H95.7227L91.9609 50.7109V73H86.3711ZM120.613 73.2812C118.141 73.2812 116.248 72.5371 114.936 71.0488C113.635 69.5488 112.984 67.3867 112.984 64.5625V49.8672C112.984 47.2188 113.629 45.209 114.918 43.8379C116.219 42.4668 118.117 41.7812 120.613 41.7812C123.109 41.7812 125.002 42.4668 126.291 43.8379C127.592 45.209 128.242 47.2188 128.242 49.8672V64.5625C128.242 67.3867 127.586 69.5488 126.273 71.0488C124.973 72.5371 123.086 73.2812 120.613 73.2812ZM120.666 67.5859C121.604 67.5859 122.072 66.6777 122.072 64.8613V49.7617C122.072 48.2383 121.615 47.4766 120.701 47.4766C119.67 47.4766 119.154 48.2559 119.154 49.8145V64.8965C119.154 65.8574 119.271 66.5488 119.506 66.9707C119.74 67.3809 120.127 67.5859 120.666 67.5859ZM130.738 73V42.0625H139.246C141.473 42.0625 143.148 42.6836 144.273 43.9258C145.398 45.1562 145.961 46.9609 145.961 49.3398V63.8242C145.961 66.7539 145.445 69.0156 144.414 70.6094C143.395 72.2031 141.602 73 139.035 73H130.738ZM136.961 67.5332H138.033C139.17 67.5332 139.738 66.9824 139.738 65.8809V49.9199C139.738 48.8887 139.598 48.2266 139.316 47.9336C139.047 47.6289 138.49 47.4766 137.646 47.4766H136.961V67.5332ZM148.492 73V42.0625H160.867V48.0391H154.785V54.0684H160.621V59.8867H154.785V66.9707H161.271V73H148.492ZM163.328 73V42.0625H172.82C174.402 42.0625 175.598 42.4258 176.406 43.1523C177.215 43.8672 177.754 44.875 178.023 46.1758C178.305 47.4648 178.445 48.9824 178.445 50.7285C178.445 52.416 178.229 53.7637 177.795 54.7715C177.373 55.7793 176.57 56.4766 175.387 56.8633C176.359 57.0625 177.039 57.5488 177.426 58.3223C177.824 59.084 178.023 60.0742 178.023 61.293V73H171.924V60.8887C171.924 59.9863 171.736 59.4297 171.361 59.2188C170.998 58.9961 170.406 58.8848 169.586 58.8848V73H163.328ZM169.621 53.5234H171.115C171.971 53.5234 172.398 52.5918 172.398 50.7285C172.398 49.5215 172.305 48.7305 172.117 48.3555C171.93 47.9805 171.578 47.793 171.062 47.793H169.621V53.5234ZM180.484 73V42.0625H186.848L189.695 56.8809V42.0625H195.672V73H189.625L186.531 57.5312V73H180.484Z" fill="#141F46"/>
<path d="M86.3711 113V82.0625H92.5586V107.727H98.9219V113H86.3711ZM107.834 113.281C105.256 113.281 103.357 112.561 102.139 111.119C100.92 109.666 100.311 107.533 100.311 104.721V82.0625H106.322V104.475C106.322 104.99 106.352 105.488 106.41 105.969C106.469 106.438 106.604 106.824 106.814 107.129C107.025 107.434 107.365 107.586 107.834 107.586C108.314 107.586 108.66 107.439 108.871 107.146C109.082 106.842 109.211 106.449 109.258 105.969C109.316 105.488 109.346 104.99 109.346 104.475V82.0625H115.357V104.721C115.357 107.533 114.748 109.666 113.529 111.119C112.311 112.561 110.412 113.281 107.834 113.281ZM116.834 113L120.156 96.5996L117.52 82.0449H123.566L125.166 92.6797L126.59 82.0449H132.654L130.018 96.5996L133.322 113H127.064L125.113 100.906L123.109 113H116.834ZM142.322 113.281C139.744 113.281 137.846 112.561 136.627 111.119C135.408 109.666 134.799 107.533 134.799 104.721V82.0625H140.811V104.475C140.811 104.99 140.84 105.488 140.898 105.969C140.957 106.438 141.092 106.824 141.303 107.129C141.514 107.434 141.854 107.586 142.322 107.586C142.803 107.586 143.148 107.439 143.359 107.146C143.57 106.842 143.699 106.449 143.746 105.969C143.805 105.488 143.834 104.99 143.834 104.475V82.0625H149.846V104.721C149.846 107.533 149.236 109.666 148.018 111.119C146.799 112.561 144.9 113.281 142.322 113.281ZM152.219 113V82.0625H161.711C163.293 82.0625 164.488 82.4258 165.297 83.1523C166.105 83.8672 166.645 84.875 166.914 86.1758C167.195 87.4648 167.336 88.9824 167.336 90.7285C167.336 92.416 167.119 93.7637 166.686 94.7715C166.264 95.7793 165.461 96.4766 164.277 96.8633C165.25 97.0625 165.93 97.5488 166.316 98.3223C166.715 99.084 166.914 100.074 166.914 101.293V113H160.814V100.889C160.814 99.9863 160.627 99.4297 160.252 99.2188C159.889 98.9961 159.297 98.8848 158.477 98.8848V113H152.219ZM158.512 93.5234H160.006C160.861 93.5234 161.289 92.5918 161.289 90.7285C161.289 89.5215 161.195 88.7305 161.008 88.3555C160.82 87.9805 160.469 87.793 159.953 87.793H158.512V93.5234ZM173.119 113V102.822L168.18 82.0625H174.314L176.037 92.5391L177.76 82.0625H183.877L178.955 102.822V113H173.119Z" fill="#141F46"/>
</svg>
