<svg width="129" height="115" viewBox="0 0 129 115" fill="none" xmlns="http://www.w3.org/2000/svg">
<path d="M26.5 1H1V20C6.5 18.5 44.5 31.5 56.5 28C66.1 25.2 73.1667 16.8333 75.5 13V1H69.5C53.1 33.4 34 14.5 26.5 1Z" fill="#141F46"/>
<path d="M70 28.5C56 40.1 18.1667 31.6667 1 26V46.5C6.2 42.5 24.5 42.8333 33 43.5C57.8 46.3 71.6667 40.3333 75.5 37V23L70 28.5Z" fill="#141F46"/>
<path d="M54 51C29.2 49.4 8.33333 50.6667 1 51.5V73.5C4.2 65.5 21.6667 62.5 30 62C52.4 62.4 69.6667 57.1667 75.5 54.5V44C71.1 48.8 59.3333 50.6667 54 51Z" fill="#141F46"/>
<path d="M40.5 68C16.9 66.4 4.33333 76.3333 1 81.5V112C19.5 62.5 47.5 92.5 52 101C55.6 107.8 61.1667 112.5 63.5 114H75.5V97.5H67.5C35.1 82.3 59.3333 72.1667 75.5 69V61.5C62.7 66.3 46.8333 67.8333 40.5 68Z" fill="#141F46"/>
<path d="M53.5 114C29.5 70.4 12.5 95.8333 7 114H12C22.8 89.2 41.1667 103.667 49 114H53.5Z" fill="#141F46"/>
<path d="M18.5 114C21.5 108.5 30.2 100.8 41 114H18.5Z" fill="#141F46"/>
<path d="M57.5 81.5C60.3 79.1 70.6667 76.8333 75.5 76V91H67.5C66 92 54 84.5 57.5 81.5Z" fill="#141F46"/>
<path d="M34.5 1C39.1667 9.66667 51.2 21.8 62 1H34.5Z" fill="#141F46"/>
<path d="M26.5 1H1V20C6.5 18.5 44.5 31.5 56.5 28C66.1 25.2 73.1667 16.8333 75.5 13V1H69.5C53.1 33.4 34 14.5 26.5 1Z" stroke="#141F46"/>
<path d="M70 28.5C56 40.1 18.1667 31.6667 1 26V46.5C6.2 42.5 24.5 42.8333 33 43.5C57.8 46.3 71.6667 40.3333 75.5 37V23L70 28.5Z" stroke="#141F46"/>
<path d="M54 51C29.2 49.4 8.33333 50.6667 1 51.5V73.5C4.2 65.5 21.6667 62.5 30 62C52.4 62.4 69.6667 57.1667 75.5 54.5V44C71.1 48.8 59.3333 50.6667 54 51Z" stroke="#141F46"/>
<path d="M40.5 68C16.9 66.4 4.33333 76.3333 1 81.5V112C19.5 62.5 47.5 92.5 52 101C55.6 107.8 61.1667 112.5 63.5 114H75.5V97.5H67.5C35.1 82.3 59.3333 72.1667 75.5 69V61.5C62.7 66.3 46.8333 67.8333 40.5 68Z" stroke="#141F46"/>
<path d="M53.5 114C29.5 70.4 12.5 95.8333 7 114H12C22.8 89.2 41.1667 103.667 49 114H53.5Z" stroke="#141F46"/>
<path d="M18.5 114C21.5 108.5 30.2 100.8 41 114H18.5Z" stroke="#141F46"/>
<path d="M57.5 81.5C60.3 79.1 70.6667 76.8333 75.5 76V91H67.5C66 92 54 84.5 57.5 81.5Z" stroke="#141F46"/>
<path d="M34.5 1C39.1667 9.66667 51.2 21.8 62 1H34.5Z" stroke="#141F46"/>
<path d="M86.3711 32V1.0625H95.793L98.3945 19.9238L100.979 1.0625H110.488V32H104.828V9.71094L101.277 32H95.7227L91.9609 9.71094V32H86.3711Z" fill="#141F46"/>
<path d="M86.3711 73V42.0625H95.793L98.3945 60.9238L100.979 42.0625H110.488V73H104.828V50.7109L101.277 73H95.7227L91.9609 50.7109V73H86.3711Z" fill="#141F46"/>
<path d="M92.7168 113V82.0625H98.9043V107.727H105.268V113H92.7168Z" fill="#141F46"/>
</svg>
